<?xml version="1.0" encoding="UTF-8" standalone="no"?>
<!-- Created with Inkscape (http://www.inkscape.org/) -->

<svg
   xmlns:dc="http://purl.org/dc/elements/1.1/"
   xmlns:cc="http://creativecommons.org/ns#"
   xmlns:rdf="http://www.w3.org/1999/02/22-rdf-syntax-ns#"
   xmlns:svg="http://www.w3.org/2000/svg"
   xmlns="http://www.w3.org/2000/svg"
   xmlns:sodipodi="http://sodipodi.sourceforge.net/DTD/sodipodi-0.dtd"
   xmlns:inkscape="http://www.inkscape.org/namespaces/inkscape"
   version="1.1"
   id="svg869"
   width="329"
   height="329"
   viewBox="0 0 329 329"
   sodipodi:docname="logo.svg"
   inkscape:version="0.92.3 (2405546, 2018-03-11)">
  <metadata
     id="metadata875">
    <rdf:RDF>
      <cc:Work
         rdf:about="">
        <dc:format>image/svg+xml</dc:format>
        <dc:type
           rdf:resource="http://purl.org/dc/dcmitype/StillImage" />
        <dc:title></dc:title>
      </cc:Work>
    </rdf:RDF>
  </metadata>
  <defs
     id="defs873" />
  <sodipodi:namedview
     pagecolor="#ffffff"
     bordercolor="#666666"
     borderopacity="1"
     objecttolerance="10"
     gridtolerance="10"
     guidetolerance="10"
     inkscape:pageopacity="0"
     inkscape:pageshadow="2"
     inkscape:window-width="1366"
     inkscape:window-height="705"
     id="namedview871"
     showgrid="false"
     inkscape:zoom="0.28047853"
     inkscape:cx="174.15656"
     inkscape:cy="238.49805"
     inkscape:window-x="0"
     inkscape:window-y="30"
     inkscape:window-maximized="1"
     inkscape:current-layer="svg869" />
  <circle
     style="opacity:1;fill:#006938;fill-opacity:1;stroke:none;stroke-width:13.30234241;stroke-linejoin:bevel;stroke-miterlimit:4;stroke-dasharray:none;stroke-opacity:1"
     id="path2081-8"
     cx="164.18893"
     cy="164.84462"
     r="164.16042"
     inkscape:export-xdpi="631.58002"
     inkscape:export-ydpi="631.58002" />
  <path
     style="fill:#ffffff;fill-opacity:1;stroke:none;stroke-width:1px;stroke-linecap:butt;stroke-linejoin:miter;stroke-opacity:1"
     d="m 205.86416,80.228876 c -10.4073,-6.43211 -17.4991,-18.49723 -8.9713,-24.39916 0.9473,-0.62471 4.6817,2.42221 4.6817,2.42221 l 12.5066,8.6905 16.0997,-24.87378 c 0,0 2.2561,-2.84113 4.5123,-1.30915 2.2562,1.53198 -0.028,4.54023 -0.028,4.54023 l -16.0424,24.665 10.0772,6.61505 c 0,0 6.8844,4.45687 6.8844,5.40391 0,0.94704 -1.5594,7.24361 -8.4529,7.44057 -6.8936,0.19696 -16.588,-5.85288 -16.588,-5.85288 L 106.04126,244.68697 c 0,0 -0.5318,0.74845 -1.2408,0.21666 -0.7091,-0.53179 0.1576,-1.63476 0.1576,-1.63476 z"
     id="path3130-7"
     inkscape:connector-curvature="0"
     sodipodi:nodetypes="cccccscccssccscc"
     inkscape:export-xdpi="631.58002"
     inkscape:export-ydpi="631.58002" />
  <path
     style="fill:#ffffff;fill-opacity:1;stroke:none;stroke-width:1px;stroke-linecap:butt;stroke-linejoin:miter;stroke-opacity:1"
     d="M 161.03216,75.637136 V 24.782371 c 0,0 -0.1575,-2.28473 2.7575,-2.28473 2.9149,0 2.7968,1.77263 2.7968,1.77263 l -1.7333,230.067689 c 0,0 -0.079,0.85677 -0.8567,0.85677 -0.778,0 -0.9553,-0.65982 -0.9553,-0.65982 z"
     id="path3126-6"
     inkscape:connector-curvature="0"
     inkscape:export-xdpi="631.58002"
     inkscape:export-ydpi="631.58002" />
  <path
     sodipodi:nodetypes="ccccscccccccccccc"
     inkscape:connector-curvature="0"
     id="path3124-9"
     d="m 92.497647,39.255376 c 0,0 -1.5599,-3.03611 0.8634,-4.42882 2.4234,-1.392715 5.1252,1.36486 5.1252,1.36486 l 17.866413,30.9455 c 0,0 1.4423,-0.37726 3.3922,-1.42114 1.9499,-1.04388 3.8849,-2.44765 5.9135,-3.43244 1.7923,-0.82723 4.3031,-2.02591 4.2474,1.17732 -0.8612,5.89824 -4.6311,9.99413 -8.6069,12.89649 l 95.9651,165.533014 c 0,0 0.2363,0.59088 -0.2167,0.88631 -0.6795,0.42346 -1.0833,-0.11817 -1.0833,-0.11817 l -98.893,-164.204644 c -4.0163,1.75579 -14.5256,5.12836 -17.080604,-1.31659 0,0 0.851204,-1.46053 3.825304,-2.79985 2.9741,-1.33932 2.7968,-1.18176 4.3922,-2.30442 1.5953,-1.12267 2.9347,-2.04837 2.9347,-2.04837 -6.2123,-10.24464 -12.429513,-20.48633 -18.644913,-30.72905 z"
     style="fill:#ffffff;fill-opacity:1;stroke:none;stroke-width:1px;stroke-linecap:butt;stroke-linejoin:miter;stroke-opacity:1"
     inkscape:export-xdpi="631.58002"
     inkscape:export-ydpi="631.58002" />
  <path
     style="fill:#006938;fill-opacity:1;stroke:none;stroke-width:0.98028624px;stroke-linecap:butt;stroke-linejoin:miter;stroke-opacity:1"
     d="m 101.37886,98.107846 h 124.9277 v 78.815094 c 0,0 2.0381,33.56977 -62.4639,64.83612 -66.317913,-32.66223 -62.4638,-64.83612 -62.4638,-64.83612 z"
     id="path3256"
     inkscape:connector-curvature="0"
     sodipodi:nodetypes="cccccc"
     inkscape:export-xdpi="631.58002"
     inkscape:export-ydpi="631.58002" />
  <path
     style="fill:#ffffff;fill-opacity:1"
     id="path2275-8"
     d="m 227.53196,177.09922 v 0 -80.400094 h -127.44 v 80.400094 0 a 12.49,12.49 0 0 0 0,1.56 29.58,29.58 0 0 0 0.75,5.07 45.48,45.48 0 0 0 3.71,10 c 0.37,0.74 0.78,1.51 1.21,2.29 a 70.73,70.73 0 0 0 6.62,9.72 c 0.42,0.51 0.84,1 1.29,1.55 a 94,94 0 0 0 7.29,7.69 c 0.77,0.72 1.56,1.45 2.38,2.19 9.3,8.31 22.3,17.23999 40.47,26.06999 18.17,-8.83 31.17,-17.75999 40.47,-26.06999 0.82,-0.74 1.62,-1.47 2.38,-2.19 a 95.93,95.93 0 0 0 7.3,-7.69 c 0.44,-0.52 0.87,-1 1.28,-1.55 a 69,69 0 0 0 6.62,-9.72 c 0.43,-0.78 0.84,-1.55 1.21,-2.29 a 45.48,45.48 0 0 0 3.71,-10 29.58,29.58 0 0 0 0.75,-5.07 12.56,12.56 0 0 0 0,-1.56 z m -99.54,40.15 a 100.14,100.14 0 0 1 -11.93,-11.77 8.13,8.13 0 0 1 5.3,-1.74 c 3.18,0 4.69,1.21 6.44,2.63 1.75,1.42 3.82,3.08 7.71,3.08 a 11,11 0 0 0 7.71,-3.08 9.57,9.57 0 0 1 4.87,-2.52 v 11.27 a 11.41,11.41 0 0 0 -6.14,3 c -1.75,1.41 -3.26,2.63 -6.44,2.63 -3.18,0 -4.69,-1.22 -6.44,-2.63 -0.34,-0.3 -0.7,-0.59 -1.08,-0.87 z m 35.82,22.67999 a 194.31,194.31 0 0 1 -28.83,-17.18999 h 0.53 a 11,11 0 0 0 7.71,-3.08 9.73,9.73 0 0 1 4.87,-2.52 v 5.61 l 0.47,0.29 c 2.75,1.74 5.42,1.46 8,1.18 2.34,-0.25 4.56,-0.48 6.71,0.88 l 0.54,0.34 0.54,-0.34 c 2.15,-1.36 4.37,-1.13 6.71,-0.88 2.58,0.28 5.25,0.56 8,-1.18 l 0.47,-0.29 v -5.61 a 9.61,9.61 0 0 1 4.87,2.52 11,11 0 0 0 7.71,3.08 h 0.53 a 194.31,194.31 0 0 1 -28.83,17.18999 z m -13.69,-18.30999 v -19.89 0 a 9.41,9.41 0 0 0 3.25,0.6 23.92,23.92 0 0 0 3.18,-0.21 c 2.17,-0.23 4.23,-0.44 6.24,0.61 v 19.89 a 9.47,9.47 0 0 0 -3,-0.6 h -0.54 a 28.25,28.25 0 0 0 -2.92,0.21 c -2.15,0.22 -4.21,0.44 -6.21,-0.62 z m 14.7,1 v -19.89 c 2,-1 4.07,-0.84 6.24,-0.61 a 24.07,24.07 0 0 0 3.19,0.21 9.36,9.36 0 0 0 3.24,-0.6 v 0 19.88 c -2,1.06 -4.07,0.84 -6.24,0.61 a 23.39,23.39 0 0 0 -3.46,-0.19 9.18,9.18 0 0 0 -2.97,0.59 z m 34.77,-5.34 c -0.36,0.27 -0.7,0.55 -1,0.82 -1.75,1.41 -3.26,2.63 -6.44,2.63 -3.18,0 -4.69,-1.22 -6.44,-2.63 a 11.49,11.49 0 0 0 -6.14,-3 v -11.25 a 9.53,9.53 0 0 1 4.87,2.52 c 1.79,1.44 3.82,3.08 7.71,3.08 a 11,11 0 0 0 7.71,-3.08 c 1.75,-1.42 3.26,-2.63 6.44,-2.63 a 8.13,8.13 0 0 1 5.3,1.74 100.77,100.77 0 0 1 -12.01,11.8 z m 18.2,-20.27 a 68.57,68.57 0 0 1 -4.94,6.91 10.25,10.25 0 0 0 -6.59,-2.2 c -3.89,0 -5.92,1.64 -7.71,3.08 -1.79,1.44 -3.26,2.63 -6.44,2.63 -3.18,0 -4.69,-1.22 -6.44,-2.63 a 11.41,11.41 0 0 0 -6.14,-3 v -3.56 l -1,0.61 -0.6,0.37 c -2.15,1.37 -4.36,1.13 -6.7,0.88 -2.34,-0.25 -4.9,-0.52 -7.46,0.86 -2.56,-1.38 -5.05,-1.12 -7.46,-0.86 -2.41,0.26 -4.55,0.49 -6.7,-0.88 l -0.6,-0.37 -1,-0.61 v 3.56 a 11.48,11.48 0 0 0 -6.14,3 c -1.75,1.41 -3.26,2.63 -6.44,2.63 -3.18,0 -4.69,-1.22 -6.44,-2.63 a 11,11 0 0 0 -7.71,-3.08 10.33,10.33 0 0 0 -6.59,2.2 70.19,70.19 0 0 1 -4.94,-6.91 c -0.21,-0.34 -0.41,-0.68 -0.61,-1 a 11.61,11.61 0 0 0 5.7,-2.92 c 1.75,-1.41 3.26,-2.63 6.44,-2.63 3.18,0 4.69,1.22 6.44,2.63 a 11.19,11.19 0 0 0 15.42,0 c 1.75,-1.41 3.26,-2.63 6.44,-2.63 3.18,0 4.69,1.22 6.44,2.63 a 11.19,11.19 0 0 0 15.42,0 c 1.75,-1.41 3.26,-2.63 6.44,-2.63 3.18,0 4.69,1.22 6.44,2.63 a 11.19,11.19 0 0 0 15.42,0 c 1.75,-1.41 3.26,-2.63 6.44,-2.63 3.18,0 4.69,1.22 6.44,2.63 a 11.69,11.69 0 0 0 5.7,2.92 c -0.12,0.32 -0.32,0.66 -0.53,1 z m 6.71,-19.91 v 1.46 a 26.88,26.88 0 0 1 -0.6,4.19 44.19,44.19 0 0 1 -4.42,11.35 c -2.56,-0.22 -3.94,-1.33 -5.51,-2.59 a 11.19,11.19 0 0 0 -15.42,0 c -1.75,1.41 -3.26,2.63 -6.44,2.63 -3.18,0 -4.69,-1.22 -6.44,-2.63 a 11.19,11.19 0 0 0 -15.42,0 c -1.75,1.41 -3.26,2.63 -6.44,2.63 -3.18,0 -4.69,-1.22 -6.44,-2.63 a 11.19,11.19 0 0 0 -15.42,0 c -1.75,1.41 -3.26,2.63 -6.44,2.63 -3.18,0 -4.69,-1.22 -6.44,-2.63 a 11.19,11.19 0 0 0 -15.42,0 c -1.57,1.26 -2.95,2.37 -5.51,2.59 a 43.71,43.71 0 0 1 -4.41,-11.35 26.07,26.07 0 0 1 -0.61,-4.2 v -8.22 a 3.84,3.84 0 0 1 7.67,0 v 12.39 h 11.29 v -14.91 a 3.83,3.83 0 0 1 7.66,0 v 14.91 h 11.29 v -17.43 a 3.83,3.83 0 0 1 7.66,0 v 17.43 h 11.29 v -20 a 3.83,3.83 0 0 1 7.66,0 v 20 h 11.29 v -17.43 a 3.83,3.83 0 0 1 7.66,0 v 17.43 h 11.29 v -14.91 a 3.83,3.83 0 0 1 7.66,0 v 14.91 h 11.29 v -12.39 a 3.84,3.84 0 0 1 7.67,0 z m 0,-12.45 a 6.87,6.87 0 0 0 -10.7,5.68 v 9.37 h -5.21 v -11.89 a 6.87,6.87 0 0 0 -13.73,0 v 11.89 h -5.27 v -14.41 a 6.87,6.87 0 0 0 -13.73,0 v 14.41 h -5.23 v -16.93 a 6.86,6.86 0 0 0 -13.72,0 v 16.93 h -5.23 v -14.41 a 6.86,6.86 0 0 0 -13.72,0 v 14.41 h -5.23 v -11.89 a 6.87,6.87 0 0 0 -13.73,0 v 11.89 h -5.22 v -9.37 a 6.87,6.87 0 0 0 -10.7,-5.68 v -3.12 a 122.44,122.44 0 0 1 121.38,0 z m -66.4,-52.41 c 0.73,-0.06 1.48,-0.11 2.3,-0.15 l 1.44,-0.07 v -2.83 c 1.34,0 2.57,0 3.92,0 v 2.83 l 1.44,0.07 c 0.84,0 1.6,0.09 2.31,0.15 l 1.64,0.14 v -3 c 1.38,0.08 2.77,0.19 4.16,0.32 v 8.43 c -3.84,-0.3 -7.7,-0.45 -11.5,-0.45 -3.8,0 -7.66,0.15 -11.51,0.45 v -8.42 c 1.39,-0.13 2.78,-0.24 4.16,-0.32 v 3 z m -4.84,8.86 c 3.52,-0.25 7.06,-0.38 10.55,-0.38 3.49,0 7,0.13 10.54,0.38 l -1.55,3 2.29,18.56 c -3.76,-0.33 -7.54,-0.5 -11.28,-0.5 v 0 c -3.74,0 -7.53,0.17 -11.29,0.5 l 2.28,-18.57 z m 71.24,37.53 a 123,123 0 0 0 -46.22,-14.89 l -2.35,-19.08 2.41,-4.73 v -13 l -1.35,-0.14 c -2.44,-0.26 -4.89,-0.44 -7.29,-0.55 l -1.58,-0.08 v 0 h -0.8 c -1.25,0 -2.39,-0.05 -3.51,-0.05 -1.12,0 -2.29,0 -3.53,0.05 h -0.79 v 0 l -1.59,0.08 c -2.39,0.11 -4.84,0.29 -7.27,0.55 l -1.36,0.14 v 13 l 2.41,4.69 -2.34,19.09 a 123,123 0 0 0 -46.22,14.92 V 99.719204 h 121.38 z"
     class="cls-1"
     inkscape:connector-curvature="0"
     inkscape:export-xdpi="631.58002"
     inkscape:export-ydpi="631.58002" />
  <path
     style="fill:#ffffff;fill-opacity:1"
     id="path2277-1"
     d="m 194.78196,133.83922 c 2.34,-0.25 4.55,-0.49 6.7,0.87 l 0.55,0.35 0.54,-0.35 c 2.15,-1.36 4.36,-1.12 6.7,-0.87 2.58,0.27 5.25,0.56 8,-1.18 l 0.47,-0.3 v -24.43 l -1.55,1 c -2.15,1.36 -4.36,1.12 -6.7,0.88 -2.34,-0.24 -4.91,-0.53 -7.46,0.86 -2.56,-1.39 -5.05,-1.12 -7.47,-0.86 -2.42,0.26 -4.55,0.48 -6.7,-0.88 l -1.55,-1 v 24.43 l 0.47,0.3 c 2.75,1.74 5.42,1.45 8,1.18 z m 8.26,-21.49 c 2,-1.06 4.06,-0.84 6.23,-0.61 a 13.31,13.31 0 0 0 6.45,-0.4 v 19.89 c -2,1.06 -4.06,0.84 -6.23,0.6 a 13.31,13.31 0 0 0 -6.45,0.4 z m -14.71,-1 a 13.31,13.31 0 0 0 6.45,0.4 c 2.17,-0.23 4.23,-0.45 6.23,0.61 v 19.87 a 9.77,9.77 0 0 0 -3.52,-0.6 28.45,28.45 0 0 0 -2.93,0.2 c -2.17,0.24 -4.22,0.46 -6.23,-0.6 z"
     class="cls-1"
     inkscape:connector-curvature="0"
     inkscape:export-xdpi="631.58002"
     inkscape:export-ydpi="631.58002" />
  <path
     style="fill:#ffffff;fill-opacity:1"
     id="path2279-6"
     d="m 190.15196,116.21922 a 6.53,6.53 0 0 0 4.53,0.67 5.4,5.4 0 0 1 3.72,0.48 0.61,0.61 0 0 0 0.34,0.1 0.62,0.62 0 0 0 0.53,-0.29 0.63,0.63 0 0 0 -0.19,-0.87 6.53,6.53 0 0 0 -4.53,-0.67 5.4,5.4 0 0 1 -3.72,-0.48 0.63,0.63 0 1 0 -0.68,1.06 z"
     class="cls-1"
     inkscape:connector-curvature="0"
     inkscape:export-xdpi="631.58002"
     inkscape:export-ydpi="631.58002" />
  <path
     style="fill:#ffffff;fill-opacity:1"
     id="path2281-8"
     d="m 190.15196,121.73922 a 6.53,6.53 0 0 0 4.53,0.67 5.4,5.4 0 0 1 3.72,0.48 0.61,0.61 0 0 0 0.34,0.1 0.62,0.62 0 0 0 0.53,-0.29 0.63,0.63 0 0 0 -0.19,-0.87 6.53,6.53 0 0 0 -4.53,-0.67 5.4,5.4 0 0 1 -3.72,-0.48 0.63,0.63 0 1 0 -0.68,1.06 z"
     class="cls-1"
     inkscape:connector-curvature="0"
     inkscape:export-xdpi="631.58002"
     inkscape:export-ydpi="631.58002" />
  <path
     style="fill:#ffffff;fill-opacity:1"
     id="path2283-5"
     d="m 194.68196,127.92922 a 5.35,5.35 0 0 1 3.72,0.49 0.69,0.69 0 0 0 0.34,0.09 0.62,0.62 0 0 0 0.53,-0.29 0.63,0.63 0 0 0 -0.19,-0.87 6.53,6.53 0 0 0 -4.53,-0.67 5.4,5.4 0 0 1 -3.72,-0.48 0.63,0.63 0 1 0 -0.68,1.06 6.53,6.53 0 0 0 4.53,0.67 z"
     class="cls-1"
     inkscape:connector-curvature="0"
     inkscape:export-xdpi="631.58002"
     inkscape:export-ydpi="631.58002" />
  <path
     style="fill:#ffffff;fill-opacity:1"
     id="path2285-2"
     d="m 209.37196,127.92922 a 6.53,6.53 0 0 0 4.53,-0.67 0.63,0.63 0 0 0 -0.68,-1.06 5.4,5.4 0 0 1 -3.72,0.48 6.58,6.58 0 0 0 -4.53,0.67 0.63,0.63 0 0 0 -0.19,0.87 0.62,0.62 0 0 0 0.53,0.29 0.69,0.69 0 0 0 0.34,-0.09 5.35,5.35 0 0 1 3.72,-0.49 z"
     class="cls-1"
     inkscape:connector-curvature="0"
     inkscape:export-xdpi="631.58002"
     inkscape:export-ydpi="631.58002" />
  <path
     style="fill:#ffffff;fill-opacity:1"
     id="path2287-1"
     d="m 205.31196,122.98922 a 0.61,0.61 0 0 0 0.34,-0.1 5.4,5.4 0 0 1 3.72,-0.48 6.53,6.53 0 0 0 4.53,-0.67 0.63,0.63 0 0 0 -0.68,-1.06 5.4,5.4 0 0 1 -3.72,0.48 6.53,6.53 0 0 0 -4.53,0.67 0.63,0.63 0 0 0 -0.19,0.87 0.62,0.62 0 0 0 0.53,0.29 z"
     class="cls-1"
     inkscape:connector-curvature="0"
     inkscape:export-xdpi="631.58002"
     inkscape:export-ydpi="631.58002" />
  <path
     style="fill:#ffffff;fill-opacity:1"
     id="path2289-9"
     d="m 205.31196,117.46922 a 0.61,0.61 0 0 0 0.34,-0.1 5.4,5.4 0 0 1 3.72,-0.48 6.53,6.53 0 0 0 4.53,-0.67 0.63,0.63 0 0 0 -0.68,-1.06 5.4,5.4 0 0 1 -3.72,0.48 6.53,6.53 0 0 0 -4.53,0.67 0.63,0.63 0 0 0 -0.19,0.87 0.62,0.62 0 0 0 0.53,0.29 z"
     class="cls-1"
     inkscape:connector-curvature="0"
     inkscape:export-xdpi="631.58002"
     inkscape:export-ydpi="631.58002" />
  <path
     style="fill:#ffffff;fill-opacity:1"
     id="path2291-9"
     d="m 118.83196,133.83922 c 2.34,-0.25 4.55,-0.49 6.7,0.87 l 0.54,0.35 0.55,-0.35 c 2.15,-1.36 4.36,-1.12 6.7,-0.87 2.58,0.27 5.25,0.56 8,-1.18 l 0.47,-0.3 v -24.43 l -1.55,1 c -2.15,1.36 -4.37,1.12 -6.71,0.88 -2.34,-0.24 -4.9,-0.53 -7.46,0.86 -2.55,-1.39 -5,-1.12 -7.46,-0.86 -2.46,0.26 -4.55,0.48 -6.7,-0.88 l -1.55,-1 v 24.43 l 0.47,0.3 c 2.76,1.74 5.42,1.45 8,1.18 z m 8.25,-21.49 c 2,-1.06 4.07,-0.84 6.24,-0.61 a 13.32,13.32 0 0 0 6.45,-0.4 v 19.89 c -2,1.06 -4.06,0.84 -6.24,0.6 a 13.32,13.32 0 0 0 -6.45,0.4 z m -14.7,-1 a 13.31,13.31 0 0 0 6.45,0.4 c 2.17,-0.23 4.23,-0.45 6.23,0.61 v 19.87 a 9.77,9.77 0 0 0 -3.52,-0.6 28.45,28.45 0 0 0 -2.93,0.2 c -2.17,0.24 -4.23,0.46 -6.23,-0.6 z"
     class="cls-1"
     inkscape:connector-curvature="0"
     inkscape:export-xdpi="631.58002"
     inkscape:export-ydpi="631.58002" />
  <path
     style="fill:#ffffff;fill-opacity:1"
     id="path2293-6"
     d="m 114.20196,116.21922 a 6.53,6.53 0 0 0 4.53,0.67 5.4,5.4 0 0 1 3.72,0.48 0.61,0.61 0 0 0 0.34,0.1 0.62,0.62 0 0 0 0.53,-0.29 0.63,0.63 0 0 0 -0.19,-0.87 6.53,6.53 0 0 0 -4.53,-0.67 5.4,5.4 0 0 1 -3.72,-0.48 0.63,0.63 0 1 0 -0.68,1.06 z"
     class="cls-1"
     inkscape:connector-curvature="0"
     inkscape:export-xdpi="631.58002"
     inkscape:export-ydpi="631.58002" />
  <path
     style="fill:#ffffff;fill-opacity:1"
     id="path2295-0"
     d="m 114.20196,121.73922 a 6.53,6.53 0 0 0 4.53,0.67 5.4,5.4 0 0 1 3.72,0.48 0.61,0.61 0 0 0 0.34,0.1 0.62,0.62 0 0 0 0.53,-0.29 0.63,0.63 0 0 0 -0.19,-0.87 6.53,6.53 0 0 0 -4.53,-0.67 5.4,5.4 0 0 1 -3.72,-0.48 0.63,0.63 0 1 0 -0.68,1.06 z"
     class="cls-1"
     inkscape:connector-curvature="0"
     inkscape:export-xdpi="631.58002"
     inkscape:export-ydpi="631.58002" />
  <path
     style="fill:#ffffff;fill-opacity:1"
     id="path2297-6"
     d="m 118.73196,127.92922 a 5.35,5.35 0 0 1 3.72,0.49 0.69,0.69 0 0 0 0.34,0.09 0.62,0.62 0 0 0 0.53,-0.29 0.63,0.63 0 0 0 -0.19,-0.87 6.53,6.53 0 0 0 -4.53,-0.67 5.4,5.4 0 0 1 -3.72,-0.48 0.63,0.63 0 1 0 -0.68,1.06 6.53,6.53 0 0 0 4.53,0.67 z"
     class="cls-1"
     inkscape:connector-curvature="0"
     inkscape:export-xdpi="631.58002"
     inkscape:export-ydpi="631.58002" />
  <path
     style="fill:#ffffff;fill-opacity:1"
     id="path2299-4"
     d="m 133.42196,127.92922 a 6.53,6.53 0 0 0 4.53,-0.67 0.63,0.63 0 0 0 -0.68,-1.06 5.4,5.4 0 0 1 -3.72,0.48 6.53,6.53 0 0 0 -4.53,0.67 0.63,0.63 0 0 0 -0.19,0.87 0.62,0.62 0 0 0 0.53,0.29 0.69,0.69 0 0 0 0.34,-0.09 5.35,5.35 0 0 1 3.72,-0.49 z"
     class="cls-1"
     inkscape:connector-curvature="0"
     inkscape:export-xdpi="631.58002"
     inkscape:export-ydpi="631.58002" />
  <path
     style="fill:#ffffff;fill-opacity:1"
     id="path2301-9"
     d="m 129.36196,122.98922 a 0.61,0.61 0 0 0 0.34,-0.1 5.4,5.4 0 0 1 3.72,-0.48 6.53,6.53 0 0 0 4.53,-0.67 0.63,0.63 0 0 0 -0.68,-1.06 5.4,5.4 0 0 1 -3.72,0.48 6.53,6.53 0 0 0 -4.53,0.67 0.63,0.63 0 0 0 -0.19,0.87 0.62,0.62 0 0 0 0.53,0.29 z"
     class="cls-1"
     inkscape:connector-curvature="0"
     inkscape:export-xdpi="631.58002"
     inkscape:export-ydpi="631.58002" />
  <path
     style="fill:#ffffff;fill-opacity:1"
     id="path2303-9"
     d="m 129.36196,117.46922 a 0.61,0.61 0 0 0 0.34,-0.1 5.4,5.4 0 0 1 3.72,-0.48 6.53,6.53 0 0 0 4.53,-0.67 0.63,0.63 0 0 0 -0.68,-1.06 5.4,5.4 0 0 1 -3.72,0.48 6.53,6.53 0 0 0 -4.53,0.67 0.63,0.63 0 0 0 -0.19,0.87 0.62,0.62 0 0 0 0.53,0.29 z"
     class="cls-1"
     inkscape:connector-curvature="0"
     inkscape:export-xdpi="631.58002"
     inkscape:export-ydpi="631.58002" />
  <path
     style="fill:#ffffff;fill-opacity:1"
     id="path2305-0"
     d="m 166.83196,134.40922 -1.14,-9.2 h -1.9 -1.87 l -1.13,9.2 c 0.89,0 1.78,0 2.68,0 1.12,-0.04 2.24,-0.02 3.36,0 z"
     class="cls-1"
     inkscape:connector-curvature="0"
     inkscape:export-xdpi="631.58002"
     inkscape:export-ydpi="631.58002" />
  <path
     style="fill:#ffffff;fill-opacity:1"
     id="path2307-8"
     d="m 151.94196,206.60922 a 6.58,6.58 0 0 0 4.53,0.67 l 0.7,-0.07 a 4.55,4.55 0 0 1 3,0.55 0.58,0.58 0 0 0 0.33,0.1 0.66,0.66 0 0 0 0.54,-0.29 0.64,0.64 0 0 0 -0.2,-0.87 5,5 0 0 0 -1.94,-0.72 10.14,10.14 0 0 0 -2.59,0 l -0.58,0.05 a 4.69,4.69 0 0 1 -3.14,-0.54 0.63122896,0.63122896 0 0 0 -0.67,1.07 z"
     class="cls-1"
     inkscape:connector-curvature="0"
     inkscape:export-xdpi="631.58002"
     inkscape:export-ydpi="631.58002" />
  <path
     style="fill:#ffffff;fill-opacity:1"
     id="path2309-9"
     d="m 151.94196,212.12922 a 6.58,6.58 0 0 0 4.53,0.67 5.4,5.4 0 0 1 3.72,0.48 0.58,0.58 0 0 0 0.33,0.1 0.66,0.66 0 0 0 0.54,-0.29 0.62,0.62 0 0 0 -0.2,-0.87 6.52,6.52 0 0 0 -4.53,-0.67 5.4,5.4 0 0 1 -3.72,-0.49 0.63122896,0.63122896 0 0 0 -0.67,1.07 z"
     class="cls-1"
     inkscape:connector-curvature="0"
     inkscape:export-xdpi="631.58002"
     inkscape:export-ydpi="631.58002" />
  <path
     style="fill:#ffffff;fill-opacity:1"
     id="path2311-3"
     d="m 157.53196,218.21922 a 4.37,4.37 0 0 1 2.66,0.58 0.58,0.58 0 0 0 0.33,0.1 0.64,0.64 0 0 0 0.54,-0.29 0.62,0.62 0 0 0 -0.2,-0.87 4.83,4.83 0 0 0 -0.67,-0.36 7.3,7.3 0 0 0 -3.86,-0.31 h -0.25 a 5,5 0 0 1 -3.47,-0.51 0.63,0.63 0 0 0 -0.87,0.2 0.63,0.63 0 0 0 -0.08,0.44 0.43,0.43 0 0 0 0,0.16 0.54,0.54 0 0 0 0.23,0.27 5.11,5.11 0 0 0 2.53,0.77 11.91,11.91 0 0 0 2,-0.1 c 0.41,-0.02 0.76,-0.06 1.11,-0.08 z"
     class="cls-1"
     inkscape:connector-curvature="0"
     inkscape:export-xdpi="631.58002"
     inkscape:export-ydpi="631.58002" />
  <path
     style="fill:#ffffff;fill-opacity:1"
     id="path2313-1"
     d="m 170.09196,218.21922 c 0.35,0 0.7,0.06 1.06,0.1 a 12,12 0 0 0 2,0.1 5.08,5.08 0 0 0 2.52,-0.77 0.62,0.62 0 0 0 0.24,-0.27 0.75,0.75 0 0 0 0,-0.16 0.63,0.63 0 0 0 -1,-0.64 5,5 0 0 1 -3.47,0.51 h -0.25 a 7.3,7.3 0 0 0 -3.86,0.31 4.83,4.83 0 0 0 -0.67,0.36 0.62,0.62 0 0 0 -0.2,0.87 0.64,0.64 0 0 0 0.54,0.29 0.58,0.58 0 0 0 0.33,-0.1 4.39,4.39 0 0 1 2.76,-0.6 z"
     class="cls-1"
     inkscape:connector-curvature="0"
     inkscape:export-xdpi="631.58002"
     inkscape:export-ydpi="631.58002" />
  <path
     style="fill:#ffffff;fill-opacity:1"
     id="path2315-4"
     d="m 167.10196,213.37922 a 0.58,0.58 0 0 0 0.33,-0.1 5.4,5.4 0 0 1 3.72,-0.48 6.58,6.58 0 0 0 4.53,-0.67 0.63,0.63 0 0 0 0.2,-0.87 0.63,0.63 0 0 0 -0.87,-0.2 5.4,5.4 0 0 1 -3.72,0.49 6.53,6.53 0 0 0 -4.53,0.67 0.62,0.62 0 0 0 -0.2,0.87 0.66,0.66 0 0 0 0.54,0.29 z"
     class="cls-1"
     inkscape:connector-curvature="0"
     inkscape:export-xdpi="631.58002"
     inkscape:export-ydpi="631.58002" />
  <path
     style="fill:#ffffff;fill-opacity:1"
     id="path2317-8"
     d="m 167.10196,207.85922 a 0.58,0.58 0 0 0 0.33,-0.1 4.56,4.56 0 0 1 3,-0.55 l 0.7,0.07 a 6.58,6.58 0 0 0 4.53,-0.67 0.63,0.63 0 0 0 0.2,-0.87 0.63,0.63 0 0 0 -0.87,-0.2 4.68,4.68 0 0 1 -3.13,0.54 l -0.59,-0.05 a 10.06,10.06 0 0 0 -2.58,0 4.7,4.7 0 0 0 -2,0.72 0.64,0.64 0 0 0 -0.2,0.87 0.66,0.66 0 0 0 0.61,0.24 z"
     class="cls-1"
     inkscape:connector-curvature="0"
     inkscape:export-xdpi="631.58002"
     inkscape:export-ydpi="631.58002" />
  <path
     style="fill:#ffffff;fill-opacity:1;stroke:none;stroke-width:1px;stroke-linecap:butt;stroke-linejoin:miter;stroke-opacity:1"
     d="m 179.46758,50.820322 c 1.51095,-10.707064 -7.38194,-20.682741 -18.06122,-20.503411 -2.5109,-0.24731 -1.5067,-1.6643 -1.5067,-1.6643 0,0 0.6622,-2.62551 9.6018,-0.01 9.3895,2.74736 15.69488,11.253256 15.6949,23.564805 -0.1114,8.52338 -6.2015,18.86013 -15.1829,21.14485 -8.9813,2.28472 -20.5625,1.73324 -25.447,-1.96959 -4.8846,-3.70283 -2.3635,-5.82998 -2.0484,-6.06633 0.3151,-0.23635 3.3089,-0.78784 6.2239,-0.78784 14.64762,-0.116314 28.55766,-1.760191 30.72562,-13.708184 z"
     id="path3128-7"
     inkscape:connector-curvature="0"
     sodipodi:nodetypes="cccscssccc"
     inkscape:export-xdpi="631.58002"
     inkscape:export-ydpi="631.58002" />
  <flowRoot
     xml:space="preserve"
     id="flowRoot3132-3"
     style="font-style:normal;font-variant:normal;font-weight:normal;font-stretch:normal;font-size:21.33333397px;line-height:1.25;font-family:Calibri;-inkscape-font-specification:Calibri;font-variant-ligatures:normal;font-variant-caps:normal;font-variant-numeric:normal;font-feature-settings:normal;text-align:center;letter-spacing:0px;word-spacing:0px;writing-mode:lr-tb;text-anchor:middle;fill:#000000;fill-opacity:1;stroke:none"
     transform="matrix(0.81463943,0,0,0.81463943,-24.646553,51.686836)"
     inkscape:export-xdpi="631.58002"
     inkscape:export-ydpi="631.58002"><flowRegion
       id="flowRegion3134-7"
       style="font-style:normal;font-variant:normal;font-weight:normal;font-stretch:normal;font-family:Calibri;-inkscape-font-specification:Calibri;text-align:center;text-anchor:middle"><rect
         id="rect3136-1"
         width="330.89081"
         height="109.03641"
         x="64.917625"
         y="255.25862"
         style="font-style:normal;font-variant:normal;font-weight:normal;font-stretch:normal;font-family:Calibri;-inkscape-font-specification:Calibri;text-align:center;text-anchor:middle" /></flowRegion><flowPara
       id="flowPara3138-2"
       style="font-weight:bold;fill:#ffffff;fill-opacity:1">UNIVERSITY OF STIRLING</flowPara><flowPara
       id="flowPara3140-2"
       style="font-weight:bold;fill:#ffffff;fill-opacity:1">FENCING CLUB</flowPara></flowRoot></svg>
